<svg width="24" height="24" viewBox="0 0 24 24" fill="none" xmlns="http://www.w3.org/2000/svg">
<path d="M15.1872 9.87347C15.4801 9.58058 15.4801 9.1057 15.1872 8.81281C14.8943 8.51992 14.4194 8.51992 14.1266 8.81281L8.4697 14.4697C8.17681 14.7626 8.17681 15.2374 8.4697 15.5303C8.76259 15.8232 9.23747 15.8232 9.53036 15.5303L15.1872 9.87347Z" fill="black"/>
<path fill-rule="evenodd" clip-rule="evenodd" d="M15.5644 2.75661C14.541 -0.829312 9.45905 -0.829312 8.43568 2.75661C8.10886 3.90177 6.93235 4.58103 5.7772 4.29148C2.16002 3.38479 -0.380964 7.78589 2.21285 10.4651C3.04118 11.3207 3.04118 12.6793 2.21285 13.5349C-0.380965 16.2141 2.16002 20.6152 5.7772 19.7085C6.93235 19.419 8.10886 20.0982 8.43568 21.2434C9.45905 24.8293 14.541 24.8293 15.5644 21.2434C15.8912 20.0982 17.0677 19.419 18.2229 19.7085C21.84 20.6152 24.381 16.2141 21.7872 13.5349C20.9589 12.6793 20.9589 11.3207 21.7872 10.4651C24.381 7.78589 21.84 3.38479 18.2229 4.29148C17.0677 4.58103 15.8912 3.90177 15.5644 2.75661ZM9.87809 3.16826C10.4873 1.03347 13.5127 1.03347 14.122 3.16826C14.6709 5.09185 16.6472 6.23285 18.5876 5.74647C20.741 5.20669 22.2537 7.82677 20.7095 9.42178C19.3181 10.859 19.3181 13.141 20.7095 14.5782C22.2537 16.1732 20.741 18.7933 18.5876 18.2535C16.6472 17.7671 14.6709 18.9081 14.122 20.8317C13.5127 22.9665 10.4873 22.9665 9.87809 20.8317C9.32912 18.9081 7.35286 17.7671 5.41249 18.2535C3.2591 18.7933 1.74639 16.1732 3.29055 14.5782C4.68195 13.141 4.68195 10.859 3.29055 9.42178C1.74639 7.82677 3.2591 5.20669 5.41249 5.74647C7.35286 6.23285 9.32912 5.09185 9.87809 3.16826Z" fill="black"/>
<path d="M8.00006 9.00003C8.00006 9.55231 8.44778 10 9.00006 10C9.55235 10 10.0001 9.55231 10.0001 9.00003C10.0001 8.44775 9.55235 8.00003 9.00006 8.00003C8.44778 8.00003 8.00006 8.44775 8.00006 9.00003Z" fill="black"/>
<path d="M14.0001 15C14.0001 15.5523 14.4478 16 15.0001 16C15.5523 16 16.0001 15.5523 16.0001 15C16.0001 14.4477 15.5523 14 15.0001 14C14.4478 14 14.0001 14.4477 14.0001 15Z" fill="black"/>
</svg>
