<svg width="53" height="53" viewBox="0 0 53 53" fill="none" xmlns="http://www.w3.org/2000/svg">
<path d="M33.125 8.28125C35.2398 8.28125 36.1044 8.28639 36.8015 8.3968C40.8175 9.03286 43.9671 12.1825 44.6032 16.1985C44.7136 16.8956 44.7188 17.7602 44.7188 19.875V33.125C44.7188 35.2398 44.7136 36.1044 44.6032 36.8015C43.9671 40.8175 40.8175 43.9671 36.8015 44.6032C36.1044 44.7136 35.2398 44.7188 33.125 44.7188H30.9167C28.8019 44.7188 26.8548 44.0213 25.2864 42.8432C24.555 42.2938 23.5167 42.4414 22.9674 43.1728C22.418 43.9042 22.5656 44.9424 23.297 45.4918C25.4193 47.0859 28.06 48.0312 30.9167 48.0312L33.3036 48.0313C35.185 48.0314 36.3311 48.0315 37.3197 47.8749C42.7531 47.0144 47.0144 42.7531 47.8749 37.3197C48.0315 36.3311 48.0314 35.185 48.0313 33.3034V19.6966C48.0314 17.815 48.0315 16.6689 47.8749 15.6803C47.0144 10.2469 42.7531 5.98564 37.3197 5.12508C36.3311 4.96851 35.185 4.9686 33.3036 4.96874L30.9167 4.96875C28.06 4.96875 25.4193 5.91406 23.297 7.50825C22.5656 8.05761 22.418 9.09586 22.9674 9.82723C23.5167 10.5586 24.555 10.7062 25.2864 10.1568C26.8548 8.9787 28.8019 8.28125 30.9167 8.28125H33.125Z" fill="black"/>
<path d="M29.7373 16.3689C29.0206 15.8006 27.9788 15.9209 27.4105 16.6377C26.8422 17.3544 26.9626 18.3962 27.6793 18.9645L31.5725 22.0514C33.1273 23.2841 34.1917 24.1312 34.9148 24.8438L6.625 24.8438C5.71028 24.8438 4.96875 25.5853 4.96875 26.5C4.96875 27.4147 5.71028 28.1563 6.625 28.1563L34.9148 28.1563C34.1917 28.8688 33.1273 29.7159 31.5725 30.9486L27.6793 34.0355C26.9626 34.6038 26.8422 35.6456 27.4105 36.3624C27.9788 37.0791 29.0206 37.1995 29.7374 36.6311L33.7097 33.4815C35.1948 32.304 36.4202 31.3324 37.2932 30.4628C38.189 29.5704 38.9317 28.5799 39.1334 27.3142C39.1763 27.0445 39.1979 26.7725 39.1979 26.5C39.1979 26.2275 39.1763 25.9555 39.1334 25.6859C38.9317 24.4201 38.189 23.4296 37.2932 22.5372C36.4202 21.6675 35.1948 20.696 33.7097 19.5185L29.7373 16.3689Z" fill="black"/>
</svg>
