<svg width="44" height="44" viewBox="0 0 44 44" fill="none" xmlns="http://www.w3.org/2000/svg">
<path fill-rule="evenodd" clip-rule="evenodd" d="M21.5312 4.41667C15.738 4.41667 11.0417 9.11301 11.0417 14.9062C11.0417 20.6995 15.738 25.3958 21.5312 25.3958C27.3245 25.3958 32.0208 20.6995 32.0208 14.9062C32.0208 9.11301 27.3245 4.41667 21.5312 4.41667ZM14.3542 14.9062C14.3542 10.9425 17.5675 7.72917 21.5312 7.72917C25.495 7.72917 28.7083 10.9425 28.7083 14.9062C28.7083 18.87 25.495 22.0833 21.5312 22.0833C17.5675 22.0833 14.3542 18.87 14.3542 14.9062Z" fill="black"/>
<path fill-rule="evenodd" clip-rule="evenodd" d="M31.3882 0.273233C28.866 -3.20841e-05 25.6869 -1.77406e-05 21.6312 2.92244e-07H21.4313C17.3756 -1.77406e-05 14.1965 -3.20841e-05 11.6743 0.273233C9.10041 0.552097 7.0149 1.13138 5.23427 2.42509C4.15628 3.20829 3.20829 4.15628 2.42509 5.23427C1.13138 7.0149 0.552097 9.10041 0.273233 11.6743C-3.20841e-05 14.1965 -1.77406e-05 17.3756 2.92244e-07 21.4313V21.6312C-1.77406e-05 25.6869 -3.20841e-05 28.866 0.273233 31.3882C0.552097 33.9621 1.13138 36.0476 2.42509 37.8282C3.17265 38.8572 4.07034 39.7677 5.08791 40.5295C5.13641 40.5658 5.18519 40.6018 5.23427 40.6374C7.0149 41.9311 9.10041 42.5104 11.6743 42.7893C14.1965 43.0625 17.3755 43.0625 21.4311 43.0625H21.6312C25.6868 43.0625 28.866 43.0625 31.3882 42.7893C33.9621 42.5104 36.0476 41.9311 37.8282 40.6374C37.8347 40.6327 37.8412 40.628 37.8477 40.6232C37.8932 40.5901 37.9384 40.5566 37.9833 40.5229C38.9973 39.7624 39.892 38.8542 40.6374 37.8282C41.9311 36.0476 42.5104 33.9621 42.7893 31.3882C43.0625 28.866 43.0625 25.687 43.0625 21.6314V21.4313C43.0625 17.3757 43.0625 14.1965 42.7893 11.6743C42.5104 9.10041 41.9311 7.0149 40.6374 5.23427C39.8542 4.15628 38.9062 3.20829 37.8282 2.42509C36.0476 1.13138 33.9621 0.552097 31.3882 0.273233ZM7.18131 5.10496C8.30315 4.28989 9.73905 3.81479 12.0311 3.56646C14.3541 3.31477 17.354 3.3125 21.5312 3.3125C25.7085 3.3125 28.7083 3.31477 31.0314 3.56646C33.3235 3.81479 34.7593 4.28989 35.8812 5.10496C36.678 5.68385 37.3787 6.38454 37.9575 7.18131C38.7726 8.30315 39.2477 9.73904 39.496 12.0311C39.7477 14.3541 39.75 17.354 39.75 21.5312C39.75 25.7085 39.7477 28.7083 39.496 31.0314C39.2584 33.2252 38.8129 34.6346 38.0605 35.7351C36.6299 31.643 32.7363 28.7083 28.1562 28.7083H14.9062C10.3264 28.7083 6.43248 31.643 5.00191 35.735C4.24954 34.6346 3.80413 33.2251 3.56646 31.0314C3.31477 28.7083 3.3125 25.7085 3.3125 21.5312C3.3125 17.354 3.31477 14.3541 3.56646 12.0311C3.81479 9.73905 4.28989 8.30315 5.10496 7.18131C5.68384 6.38454 6.38454 5.68384 7.18131 5.10496ZM28.1562 32.0208C31.8303 32.0208 34.8607 34.7825 35.283 38.3421C34.2496 38.9267 32.9361 39.2897 31.0314 39.496C28.7083 39.7477 25.7085 39.75 21.5312 39.75C17.354 39.75 14.3541 39.7477 12.0311 39.496C10.1264 39.2897 8.81289 38.9267 7.77955 38.3422C8.2021 34.7823 11.2321 32.0208 14.9062 32.0208H28.1562Z" fill="black"/>
</svg>
