<svg width="50" height="25" viewBox="0 0 50 25" fill="none" xmlns="http://www.w3.org/2000/svg">
<path d="M43.2353 7.13616V13.2482H41.0436V8.96074H38.9334V13.2482H36.7418V7.13574H43.2353V7.13616Z" fill="black"/>
<path fill-rule="evenodd" clip-rule="evenodd" d="M32.2407 13.4669C34.2026 13.4669 35.6595 12.2689 35.6595 10.4529C35.6595 8.69519 34.5846 7.55394 32.7882 7.55394C31.9591 7.55394 31.275 7.84457 30.7597 8.34603C30.8827 7.30957 31.7629 6.5529 32.7319 6.5529C32.9555 6.5529 34.6392 6.54936 34.6392 6.54936L35.5913 4.73499C35.5913 4.73499 33.4775 4.7829 32.4949 4.7829C30.2497 4.82186 28.7332 6.85415 28.7332 9.32249C28.7332 12.1981 30.2122 13.4669 32.2407 13.4669ZM32.2526 9.16103C32.9811 9.16103 33.4861 9.63769 33.4861 10.4527C33.4861 11.1862 33.0373 11.7906 32.2526 11.7923C31.502 11.7923 30.997 11.2323 30.997 10.4652C30.997 9.64999 31.502 9.16103 32.2526 9.16103Z" fill="black"/>
<path d="M26.9493 11.2021C26.9493 11.2021 26.4317 11.4992 25.6587 11.5554C24.77 11.5817 23.9782 11.0227 23.9782 10.0296C23.9782 9.06082 24.6769 8.50561 25.6363 8.50561C26.2246 8.50561 27.0028 8.91165 27.0028 8.91165C27.0028 8.91165 27.5723 7.87103 27.8673 7.35061C27.3271 6.9429 26.6077 6.71936 25.7708 6.71936C23.6589 6.71936 22.0231 8.09061 22.0231 10.0173C22.0231 11.9685 23.5606 13.3079 25.7708 13.2675C26.3886 13.2446 27.2409 13.0285 27.7604 12.6962L26.9493 11.2021Z" fill="black"/>
<path d="M0 5.44165L3.04017 10.8531V14.1539L0.00355649 19.5548L0 5.44165Z" fill="#5B57A2"/>
<path d="M11.673 8.88394L14.5218 7.14519L20.3519 7.13977L11.673 12.4344V8.88394Z" fill="#D90751"/>
<path d="M11.6569 5.40979L11.673 12.5744L8.62573 10.7098V0L11.6569 5.40979Z" fill="#FAB718"/>
<path d="M20.3519 7.13979L14.5215 7.14521L11.6569 5.40979L8.62573 0L20.3519 7.13979Z" fill="#ED6F26"/>
<path d="M11.673 19.5848V16.1087L8.62573 14.2795L8.62741 25L11.673 19.5848Z" fill="#63B22F"/>
<path d="M14.5146 17.8619L3.03996 10.8531L0 5.44165L20.3395 17.8548L14.5146 17.8619Z" fill="#1487C9"/>
<path d="M8.62762 24.9999L11.6728 19.5847L14.5144 17.8618L20.3393 17.8547L8.62762 24.9999Z" fill="#017F36"/>
<path d="M0.00354004 19.5548L8.65061 14.2798L5.7435 12.5035L3.04015 14.154L0.00354004 19.5548Z" fill="#984995"/>
<path d="M23.9788 17.3618C23.9118 17.4468 23.8237 17.5109 23.7181 17.5543C23.6097 17.5982 23.4937 17.6206 23.3767 17.6201C23.2603 17.6217 23.1445 17.6023 23.035 17.563C22.9367 17.5275 22.8468 17.472 22.771 17.4001C22.6962 17.3281 22.6375 17.2412 22.5986 17.1451C22.5566 17.0398 22.5356 16.9274 22.5369 16.8141C22.5369 16.7016 22.5564 16.5974 22.5968 16.4987C22.6355 16.3997 22.6917 16.3149 22.7622 16.2437C22.8327 16.1709 22.9173 16.1155 23.0122 16.0722C23.1091 16.0305 23.2147 16.008 23.3309 16.008C23.456 16.008 23.5721 16.0237 23.6777 16.0547C23.7834 16.0859 23.8731 16.138 23.947 16.2109L23.8185 16.4276C23.7564 16.3715 23.6832 16.329 23.6037 16.3026C23.528 16.2783 23.449 16.2661 23.3696 16.2664C23.2993 16.2664 23.2323 16.2801 23.1673 16.3062C23.1031 16.3319 23.0446 16.3696 22.9947 16.4172C22.9437 16.4662 22.9035 16.5252 22.8767 16.5905C22.8468 16.658 22.8327 16.7326 22.8327 16.8157C22.8327 16.9007 22.8484 16.977 22.8783 17.0428C22.9085 17.1105 22.9488 17.1678 22.9999 17.2162C23.0509 17.2649 23.1108 17.3012 23.1794 17.3255C23.2482 17.3516 23.3204 17.3637 23.3978 17.3637C23.4928 17.3637 23.5792 17.3445 23.653 17.308C23.7262 17.2728 23.792 17.224 23.8468 17.1643L23.9788 17.3618ZM24.3413 17.5837V16.0409H24.6196V17.1903L25.5244 16.0409H25.8026V17.5839H25.5244V16.4345L24.6196 17.5839L24.3413 17.5837ZM27.6457 17.3618C27.5773 17.4475 27.4875 17.5139 27.3852 17.5543C27.2768 17.5982 27.1607 17.6206 27.0436 17.6201C26.9273 17.6217 26.8116 17.6023 26.7022 17.563C26.6038 17.5275 26.5138 17.472 26.438 17.4001C26.3632 17.3281 26.3044 17.2412 26.2656 17.1451C26.2235 17.0398 26.2026 16.9274 26.2039 16.8141C26.2039 16.7016 26.2233 16.5974 26.2637 16.4987C26.3026 16.3997 26.3589 16.3149 26.4292 16.2437C26.4997 16.1709 26.5842 16.1155 26.6792 16.0722C26.7795 16.0282 26.8882 16.0063 26.9978 16.008C27.1229 16.008 27.239 16.0237 27.3447 16.0547C27.4503 16.0859 27.5401 16.138 27.6141 16.2109L27.4855 16.4276C27.4234 16.3715 27.3503 16.3289 27.2708 16.3026C27.1952 16.2784 27.1162 16.2661 27.0367 16.2664C26.8969 16.2668 26.7626 16.3208 26.6616 16.4172C26.6111 16.4666 26.5709 16.5255 26.5436 16.5905C26.5137 16.658 26.4997 16.7326 26.4997 16.8157C26.4997 16.9007 26.5156 16.977 26.5455 17.0428C26.5754 17.1105 26.6158 17.1678 26.6668 17.2162C26.7179 17.2649 26.7779 17.3012 26.8465 17.3255C26.9152 17.3497 26.9873 17.3637 27.0647 17.3637C27.1599 17.3637 27.2445 17.3445 27.32 17.308C27.3932 17.2728 27.4589 17.224 27.5137 17.1643L27.6457 17.3618ZM27.7884 16.0409H29.216V16.3149H28.6422V17.5837H28.3639V16.3149H27.7901V16.0409H27.7884Z" fill="black"/>
<path fill-rule="evenodd" clip-rule="evenodd" d="M30.5154 17.5682C30.621 17.5353 30.7108 17.4849 30.7882 17.4157L30.7037 17.2007C30.6526 17.2459 30.584 17.2841 30.5014 17.3153C30.4185 17.3466 30.3252 17.362 30.2231 17.362C30.07 17.362 29.9432 17.3222 29.8428 17.2407C29.7426 17.1591 29.688 17.0449 29.6756 16.8991H30.8798C30.8922 16.8453 30.8974 16.7847 30.8974 16.7137C30.8974 16.6078 30.8779 16.5126 30.8392 16.4259C30.8032 16.3418 30.7506 16.2657 30.6844 16.2022C30.6174 16.1393 30.5383 16.0904 30.452 16.0584C30.3616 16.0235 30.2655 16.0059 30.1685 16.0064C30.0382 16.0064 29.9238 16.0289 29.8236 16.0705C29.7288 16.1102 29.6431 16.1686 29.5717 16.2422C29.5023 16.3154 29.449 16.4022 29.4152 16.497C29.378 16.598 29.3595 16.7048 29.3606 16.8124C29.3606 16.9339 29.3817 17.0447 29.4204 17.1437C29.4581 17.2395 29.5157 17.3263 29.5895 17.3984C29.6616 17.4693 29.7495 17.5232 29.8535 17.5614C29.9648 17.6007 30.0822 17.62 30.2003 17.6184C30.3073 17.6178 30.4135 17.6007 30.5154 17.5682ZM29.8112 16.3807C29.8974 16.3028 30.0118 16.2647 30.1562 16.2647C30.2918 16.2647 30.401 16.3012 30.4802 16.3741C30.5595 16.4468 30.6016 16.5474 30.6087 16.6755H29.6581C29.6715 16.5621 29.726 16.4572 29.8112 16.3807Z" fill="black"/>
<path d="M31.2759 16.041H31.5294L32.1315 16.8056L32.7018 16.041H32.9483V17.5839H32.6702V16.4589L32.128 17.1748H32.1173L31.5541 16.4587V17.5837H31.2759V16.041Z" fill="black"/>
<path fill-rule="evenodd" clip-rule="evenodd" d="M33.7052 16.0462C33.6207 16.0682 33.54 16.1026 33.4658 16.1483L33.5397 16.3671C33.6031 16.3358 33.6664 16.3098 33.7298 16.2873C33.7932 16.2646 33.8742 16.2541 33.9711 16.2541C34.0485 16.2541 34.1102 16.2664 34.1577 16.2906C34.2052 16.3131 34.2403 16.3479 34.265 16.3896C34.2897 16.4312 34.3056 16.4831 34.3144 16.5437C34.3231 16.6044 34.3267 16.6702 34.3267 16.7414C34.2698 16.7019 34.2049 16.6753 34.1365 16.6633C34.0704 16.6502 34.0033 16.6433 33.9359 16.6425C33.8531 16.6425 33.7757 16.6548 33.7016 16.6754C33.6277 16.6962 33.5644 16.7275 33.5133 16.7691C33.4612 16.8107 33.4191 16.8634 33.3901 16.9233C33.3591 16.9889 33.3434 17.0606 33.3443 17.1331C33.3443 17.2839 33.3884 17.4019 33.4763 17.4852C33.5644 17.5683 33.6805 17.6098 33.8248 17.6098C33.9551 17.6098 34.0591 17.5873 34.1382 17.5423C34.2175 17.4971 34.2809 17.4452 34.3267 17.3862V17.5856H34.5872V16.6391C34.5872 16.4379 34.5432 16.2821 34.4535 16.1727C34.3654 16.0635 34.2087 16.0081 33.987 16.0081C33.8882 16.0081 33.7949 16.0219 33.7052 16.0462ZM34.1702 17.2962C34.1068 17.3412 34.024 17.3619 33.9219 17.3619C33.8321 17.3619 33.7616 17.3394 33.7125 17.296C33.6631 17.251 33.6384 17.1921 33.6384 17.1191C33.6384 17.076 33.6472 17.0396 33.6667 17.0066C33.6861 16.9737 33.7125 16.9477 33.7424 16.9269C33.7751 16.9051 33.8114 16.8892 33.8497 16.88C33.8903 16.8696 33.9307 16.8644 33.9729 16.8644C34.1104 16.8644 34.2282 16.8973 34.325 16.9666V17.1625C34.2794 17.2134 34.2273 17.2585 34.1702 17.2962ZM37.0432 15.4983C37.0995 15.4725 37.1522 15.4291 37.2016 15.365L37.0501 15.1483C37.0114 15.2004 36.9675 15.2366 36.9181 15.2558C36.8658 15.2762 36.8116 15.2913 36.7562 15.3008L36.7035 15.3102C36.6577 15.3181 36.6085 15.3269 36.5556 15.3356C36.4707 15.3512 36.388 15.3768 36.3091 15.4119C36.184 15.4656 36.0838 15.5383 36.0081 15.6302C35.9323 15.7221 35.8725 15.826 35.8319 15.9406C35.7908 16.0567 35.7631 16.177 35.7493 16.2994C35.7351 16.4244 35.7282 16.5437 35.7282 16.6581C35.7282 16.8056 35.7474 16.9389 35.7861 17.0585C35.825 17.1783 35.8794 17.2787 35.9516 17.3602C36.0238 17.4435 36.1102 17.506 36.2123 17.551C36.3144 17.596 36.4288 17.6185 36.5572 17.6185C36.6752 17.6185 36.7844 17.596 36.883 17.5544C36.978 17.5143 37.0641 17.4561 37.1365 17.3829C37.2068 17.3116 37.2633 17.2266 37.302 17.1314C37.3424 17.036 37.3618 16.9337 37.3618 16.8262C37.3618 16.7102 37.3443 16.6046 37.3108 16.5108C37.28 16.4214 37.2308 16.3394 37.1664 16.27C37.102 16.2017 37.0232 16.1484 36.9357 16.1137C36.8393 16.0759 36.7365 16.0571 36.633 16.0583C36.566 16.0583 36.501 16.0671 36.4376 16.0844C36.3759 16.1017 36.3167 16.1267 36.2614 16.1589C36.2078 16.1895 36.1586 16.2274 36.1154 16.2714C36.0731 16.315 36.038 16.3635 36.0133 16.4189H36.0062C36.0116 16.3479 36.0204 16.2752 36.0361 16.2006C36.052 16.126 36.0748 16.0548 36.1049 15.9873C36.1349 15.9198 36.1736 15.8589 36.2211 15.8035C36.272 15.7476 36.3344 15.7032 36.4041 15.6735C36.4807 15.6372 36.5618 15.611 36.6453 15.5956L36.7005 15.5856C36.7556 15.5756 36.8081 15.566 36.8583 15.5556C36.9252 15.5419 36.9867 15.5241 37.0432 15.4983ZM36.0644 16.9806C36.0371 16.8931 36.0241 16.8018 36.0257 16.7102C36.0374 16.6576 36.0589 16.6077 36.089 16.5629C36.119 16.516 36.1577 16.4746 36.2035 16.4379C36.3069 16.3572 36.4347 16.3139 36.566 16.315C36.7298 16.315 36.8531 16.3652 36.9393 16.4641C37.0257 16.5646 37.0679 16.6894 37.0679 16.8402C37.0679 16.9148 37.0537 16.9825 37.0292 17.0448C37.0054 17.1062 36.9695 17.1623 36.9235 17.2096C36.8775 17.257 36.8225 17.2946 36.7616 17.3204C36.6982 17.3481 36.6294 17.3621 36.552 17.3621C36.4746 17.3621 36.4041 17.3464 36.339 17.3152C36.2744 17.2846 36.2172 17.2402 36.1717 17.1852C36.124 17.1239 36.0876 17.0546 36.0644 16.9806ZM39.4955 16.041H39.2173V17.5839H39.4955V16.041ZM37.7631 16.041H38.0413V16.5039H38.2985C38.4198 16.5039 38.5183 16.5196 38.5976 16.5489C38.6769 16.5785 38.7403 16.6183 38.7878 16.6669C38.8353 16.7154 38.8687 16.7727 38.8882 16.8366C38.9075 16.9008 38.9181 16.9666 38.9181 17.036C38.9181 17.1054 38.9075 17.1714 38.8846 17.2373C38.8635 17.3031 38.8265 17.3602 38.7771 17.4123C38.728 17.4644 38.661 17.506 38.5765 17.5373C38.492 17.5683 38.3899 17.5856 38.2667 17.5856H37.7614V16.041H37.7631ZM38.0413 16.7621V17.3273H38.2439C38.383 17.3273 38.4815 17.3031 38.5378 17.2544C38.5943 17.2058 38.6223 17.1366 38.6223 17.0448C38.6223 16.951 38.5924 16.8802 38.5361 16.8314C38.478 16.7829 38.3811 16.7585 38.2474 16.7585H38.0413V16.7621Z" fill="black"/>
<path d="M41.3353 17.3618C41.2683 17.4468 41.1802 17.5109 41.0746 17.5543C40.9662 17.5982 40.8502 17.6206 40.7332 17.6201C40.6168 17.6217 40.5011 17.6023 40.3915 17.563C40.2932 17.5275 40.2033 17.472 40.1275 17.4001C40.0527 17.3281 39.9939 17.2412 39.9549 17.1451C39.9131 17.0398 39.8922 16.9273 39.8934 16.8141C39.8934 16.7016 39.9127 16.5974 39.9533 16.4987C39.992 16.3997 40.0482 16.3149 40.1187 16.2437C40.1892 16.1709 40.2736 16.1155 40.3687 16.0722C40.4691 16.0282 40.5778 16.0063 40.6874 16.008C40.8123 16.008 40.9286 16.0237 41.0342 16.0547C41.1399 16.0859 41.2296 16.138 41.3035 16.2109L41.175 16.4276C41.1129 16.3715 41.0397 16.329 40.9602 16.3026C40.8845 16.2783 40.8055 16.2661 40.7261 16.2664C40.6558 16.2664 40.5888 16.2801 40.5236 16.3062C40.4595 16.3319 40.401 16.3696 40.3512 16.4172C40.3005 16.4665 40.2604 16.5254 40.2332 16.5905C40.2033 16.658 40.1892 16.7326 40.1892 16.8157C40.1892 16.9007 40.2049 16.977 40.2348 17.0428C40.2648 17.1105 40.3054 17.1678 40.3564 17.2162C40.4074 17.2649 40.4673 17.3012 40.5359 17.3255C40.6047 17.3497 40.6769 17.3637 40.7543 17.3637C40.8493 17.3637 40.9338 17.3445 41.0095 17.308C41.0827 17.2728 41.1485 17.224 41.2033 17.1643L41.3353 17.3618ZM41.4777 16.0409H42.9056V16.3149H42.3315V17.5837H42.0535V16.3149H41.4796V16.0409H41.4777Z" fill="black"/>
<path fill-rule="evenodd" clip-rule="evenodd" d="M43.4866 16.0411H43.2083V18.2703H43.4866V17.5128C43.5428 17.5493 43.6098 17.5753 43.6872 17.5926C43.7646 17.6099 43.8456 17.6184 43.9284 17.6184C44.0516 17.6184 44.1625 17.5959 44.2629 17.5545C44.3592 17.5134 44.4465 17.454 44.5198 17.3795C44.592 17.3047 44.6466 17.218 44.6853 17.1157C44.724 17.0136 44.7435 16.9043 44.7435 16.7882C44.7435 16.6736 44.7259 16.568 44.6924 16.4726C44.6609 16.382 44.6119 16.2984 44.5481 16.2265C44.4855 16.1565 44.4078 16.1014 44.3209 16.0653C44.2258 16.0246 44.1232 16.0045 44.0198 16.0063C43.9108 16.0063 43.8087 16.0272 43.7119 16.0688C43.615 16.1105 43.5393 16.1605 43.4866 16.223V16.0411ZM43.6803 16.3272C43.7596 16.2855 43.8458 16.2647 43.9391 16.2647C44.02 16.2647 44.0922 16.2768 44.1575 16.3028C44.2209 16.3288 44.2736 16.3653 44.3177 16.4138C44.3617 16.4624 44.3951 16.518 44.4163 16.5836C44.4391 16.6495 44.4497 16.7207 44.4497 16.7986C44.4497 16.882 44.4355 16.9563 44.411 17.0257C44.388 17.0915 44.3513 17.1517 44.3035 17.2026C44.2555 17.2528 44.1973 17.2924 44.1328 17.3186C44.0609 17.3486 43.9835 17.3634 43.9056 17.362C43.8301 17.362 43.7596 17.3534 43.6926 17.3361C43.6193 17.3163 43.5498 17.2846 43.4868 17.2424V16.4778C43.5359 16.419 43.6012 16.3688 43.6803 16.3272ZM46.8771 16.0409H46.5989V17.5838H46.8771V16.0409ZM45.143 16.0409H45.4213V16.5038H45.6782C45.7997 16.5038 45.8983 16.5195 45.9776 16.5488C46.0568 16.5784 46.1202 16.6182 46.1677 16.6668C46.2152 16.7153 46.2487 16.7726 46.2679 16.8365C46.2874 16.9007 46.2979 16.9665 46.2979 17.0359C46.2979 17.1053 46.2874 17.1713 46.2646 17.2372C46.2435 17.303 46.2064 17.3601 46.1571 17.4122C46.1079 17.4643 46.0409 17.5059 45.9564 17.5372C45.8719 17.5682 45.7698 17.5855 45.6466 17.5855H45.1414V16.0409H45.143ZM45.4232 16.762V17.3272H45.6257C45.7646 17.3272 45.8633 17.303 45.9196 17.2543C45.9759 17.2057 46.0041 17.1365 46.0041 17.0447C46.0041 16.9509 45.9742 16.8801 45.9179 16.8313C45.8598 16.7828 45.7629 16.7584 45.6292 16.7584H45.4232V16.762Z" fill="black"/>
<path d="M48.2116 16.7848L48.8066 17.5839H48.4652L48.0056 16.9598L47.539 17.5839H47.2152L47.8066 16.7985L47.2503 16.041H47.592L48.0162 16.6235L48.4474 16.041H48.7715L48.2116 16.7848ZM23.7729 19.4908H22.9192V20.7771H22.6409V19.2343H24.051V20.7771H23.7729V19.4908ZM25.6301 19.5081H25.0809L25.0631 19.7681C25.0439 19.9883 25.0175 20.1652 24.9805 20.3002C24.9434 20.4356 24.8976 20.5396 24.8449 20.6123C24.7922 20.6852 24.7305 20.7354 24.66 20.7598C24.5872 20.786 24.5103 20.7989 24.433 20.7979L24.4119 20.5308C24.4418 20.5325 24.4769 20.5256 24.5156 20.5083C24.5545 20.491 24.5932 20.4529 24.6301 20.3958C24.6671 20.3366 24.7006 20.2535 24.7305 20.146C24.7604 20.0368 24.7798 19.8948 24.7903 19.716L24.8185 19.2358H25.9083V20.7787H25.6301V19.5081Z" fill="black"/>
<path fill-rule="evenodd" clip-rule="evenodd" d="M26.6583 19.2378C26.5683 19.262 26.4874 19.2966 26.4187 19.3399L26.4928 19.5585C26.5562 19.5272 26.6196 19.5012 26.6828 19.4787C26.7461 19.4562 26.8273 19.4457 26.924 19.4457C27.0016 19.4457 27.0631 19.4578 27.1106 19.482C27.1583 19.5047 27.1934 19.5393 27.2181 19.581C27.2426 19.6226 27.2585 19.6747 27.2673 19.7351C27.2761 19.796 27.2796 19.8618 27.2796 19.9328C27.2227 19.8934 27.1578 19.8668 27.0895 19.8549C27.0234 19.8418 26.9562 19.8348 26.8888 19.8341C26.8062 19.8341 26.7286 19.8462 26.6547 19.867C26.5807 19.8878 26.5173 19.9191 26.4662 19.9607C26.4141 20.0023 26.372 20.055 26.343 20.1149C26.3121 20.1805 26.2965 20.2522 26.2974 20.3247C26.2974 20.4753 26.3413 20.5935 26.4294 20.6766C26.5173 20.7597 26.6336 20.8014 26.7779 20.8014C26.9083 20.8014 27.012 20.7789 27.0913 20.7337C27.1704 20.6887 27.2338 20.6366 27.2796 20.5776V20.777H27.5403V19.8305C27.5403 19.6295 27.4961 19.4735 27.4064 19.3643C27.3183 19.2549 27.1616 19.1997 26.9399 19.1997C26.8447 19.1998 26.75 19.2127 26.6583 19.2378ZM27.1248 20.4874C27.0616 20.5326 26.9788 20.5535 26.8767 20.5535C26.7851 20.5535 26.7164 20.531 26.6673 20.4874C26.6179 20.4424 26.5932 20.3835 26.5932 20.3107C26.5932 20.2674 26.602 20.231 26.6215 20.198C26.6407 20.1651 26.6673 20.1391 26.6972 20.1182C26.7271 20.0974 26.7639 20.0818 26.8045 20.0714C26.8448 20.061 26.8862 20.0558 26.9277 20.056C27.065 20.056 27.183 20.0889 27.2798 20.158V20.3539C27.2341 20.4048 27.182 20.4497 27.1248 20.4874Z" fill="black"/>
<path d="M27.8129 19.2343H29.2407V19.508H28.6666V20.777H28.3886V19.5082H27.8147V19.2343H27.8129Z" fill="black"/>
<path fill-rule="evenodd" clip-rule="evenodd" d="M30.5401 20.7614C30.6457 20.7285 30.7355 20.6781 30.8129 20.6089L30.7284 20.3939C30.6773 20.4391 30.6087 20.4772 30.5258 20.5085C30.4432 20.5397 30.3499 20.5551 30.2478 20.5551C30.0947 20.5551 29.9679 20.5153 29.8675 20.4339C29.7671 20.3524 29.7127 20.2381 29.7003 20.0922H30.9045C30.9166 20.0387 30.9221 19.9778 30.9221 19.9068C30.9221 19.8012 30.9026 19.7058 30.8639 19.6191C30.8279 19.535 30.7751 19.4589 30.7089 19.3956C30.642 19.3325 30.563 19.2836 30.4767 19.2516C30.3863 19.2167 30.2901 19.199 30.1932 19.1995C30.0629 19.1995 29.9484 19.222 29.8482 19.2637C29.7534 19.3033 29.6677 19.3617 29.5963 19.4353C29.527 19.5086 29.4736 19.5953 29.4397 19.6901C29.4026 19.7912 29.3841 19.898 29.385 20.0056C29.385 20.127 29.4062 20.2378 29.4449 20.3368C29.4838 20.4356 29.5417 20.5206 29.6139 20.5916C29.6861 20.6626 29.7742 20.7164 29.8781 20.7545C29.9894 20.7939 30.1068 20.8133 30.2248 20.8118C30.3288 20.8118 30.4344 20.7943 30.5401 20.7614ZM29.8342 19.5722C29.9204 19.4943 30.0348 19.4562 30.1792 19.4562C30.3166 19.4562 30.424 19.4943 30.5032 19.5653C30.5823 19.6383 30.6246 19.7387 30.6317 19.867H29.6811C29.6945 19.7535 29.7489 19.6487 29.8342 19.5722ZM31.0576 19.2343H31.4097L31.9466 19.9781L31.3727 20.777H31.0313L31.6332 19.9778L31.0576 19.2343ZM32.0152 19.2343H32.2934V20.777H32.0152V19.2343ZM33.288 20.777L32.6754 19.9778L33.2476 19.2341H32.9024L32.362 19.9778L32.943 20.777H33.288ZM34.5591 20.7614C34.6648 20.7285 34.7545 20.6781 34.8319 20.6089L34.7474 20.3939C34.6963 20.4391 34.6277 20.4772 34.5451 20.5085C34.4622 20.5397 34.3689 20.5551 34.2668 20.5551C34.1137 20.5551 33.9869 20.5153 33.8865 20.4339C33.7863 20.3524 33.7317 20.2381 33.7194 20.0922H34.9235C34.9359 20.0387 34.9411 19.9778 34.9411 19.9068C34.9411 19.8012 34.9219 19.7058 34.883 19.6191C34.8469 19.535 34.7943 19.459 34.7281 19.3956C34.6611 19.3325 34.5821 19.2836 34.4957 19.2516C34.4053 19.2167 34.3092 19.199 34.2122 19.1995C34.0821 19.1995 33.9677 19.222 33.8673 19.2637C33.7726 19.3033 33.6869 19.3617 33.6156 19.4353C33.5461 19.5085 33.4927 19.5953 33.4589 19.6901C33.4217 19.7911 33.4032 19.898 33.4043 20.0056C33.4043 20.127 33.4254 20.2378 33.4641 20.3368C33.5028 20.4356 33.561 20.5206 33.6332 20.5916C33.7053 20.6626 33.7932 20.7164 33.8972 20.7545C34.0085 20.7939 34.1259 20.8133 34.244 20.8118C34.351 20.811 34.4573 20.794 34.5591 20.7614ZM33.8532 19.5722C33.9397 19.4943 34.0541 19.4562 34.1984 19.4562C34.334 19.4562 34.443 19.4943 34.5223 19.5653C34.6016 19.6383 34.6438 19.7387 34.6507 19.867H33.7001C33.7135 19.7535 33.768 19.6487 33.8532 19.5722ZM36.0698 18.716C35.906 18.716 35.8162 18.6258 35.8022 18.4456H35.5399C35.5399 18.5147 35.5522 18.5772 35.575 18.6362C35.598 18.6951 35.6315 18.7453 35.6754 18.787C35.7194 18.8287 35.7758 18.8616 35.8409 18.8874C35.906 18.9135 35.9817 18.9256 36.0679 18.9256C36.1472 18.9256 36.2177 18.9135 36.2811 18.8874C36.3445 18.8633 36.3972 18.8287 36.443 18.787C36.4869 18.7453 36.5223 18.6951 36.5468 18.6362C36.5714 18.5772 36.5838 18.5147 36.5838 18.4456H36.3233C36.311 18.6258 36.2246 18.716 36.0698 18.716ZM35.3179 19.2341V20.777H35.5961L36.5009 19.6276V20.777H36.7792V19.2341H36.5009L35.5961 20.3835V19.2341H35.3179Z" fill="black"/>
</svg>
