<svg width="25" height="25" viewBox="0 0 25 25" fill="none" xmlns="http://www.w3.org/2000/svg">
<path fill-rule="evenodd" clip-rule="evenodd" d="M12.5 25C19.4036 25 25 19.4036 25 12.5C25 5.59644 19.4036 0 12.5 0C5.59644 0 0 5.59644 0 12.5C0 19.4036 5.59644 25 12.5 25ZM13.4375 7.5C13.4375 6.98223 13.0178 6.5625 12.5 6.5625C11.9822 6.5625 11.5625 6.98223 11.5625 7.5V16.1703C11.5447 16.1564 11.5266 16.1421 11.5081 16.1272C11.1048 15.8033 10.6254 15.3216 9.91317 14.603L8.16586 12.8401C7.80138 12.4723 7.2078 12.4697 6.84005 12.8341C6.47231 13.1986 6.46966 13.7922 6.83414 14.1599L8.61957 15.9614C9.2838 16.6316 9.83778 17.1906 10.3341 17.5891C10.8546 18.0072 11.4016 18.3251 12.0681 18.4101C12.2115 18.4284 12.3557 18.4375 12.5 18.4375C12.6443 18.4375 12.7885 18.4284 12.9319 18.4101C13.5984 18.3251 14.1454 18.0072 14.6659 17.5891C15.1622 17.1906 15.7162 16.6316 16.3804 15.9614L18.1659 14.1599C18.5303 13.7922 18.5277 13.1986 18.1599 12.8341C17.7922 12.4697 17.1986 12.4723 16.8341 12.8401L15.0868 14.603C14.3746 15.3216 13.8952 15.8033 13.4919 16.1272C13.4734 16.1421 13.4553 16.1564 13.4375 16.1703V7.5Z" fill="black"/>
</svg>
