<svg width="25" height="25" viewBox="0 0 25 25" fill="none" xmlns="http://www.w3.org/2000/svg">
<path fill-rule="evenodd" clip-rule="evenodd" d="M12.5 0C19.4036 0 25 5.59644 25 12.5C25 19.4036 19.4036 25 12.5 25C5.59644 25 0 19.4036 0 12.5C0 5.59644 5.59644 0 12.5 0ZM13.4375 17.5C13.4375 18.0178 13.0178 18.4375 12.5 18.4375C11.9822 18.4375 11.5625 18.0178 11.5625 17.5V8.82974C11.5447 8.84359 11.5266 8.85793 11.5081 8.87279C11.1048 9.19666 10.6254 9.67835 9.91317 10.397L8.16586 12.1599C7.80138 12.5277 7.2078 12.5303 6.84005 12.1659C6.47231 11.8014 6.46966 11.2078 6.83414 10.8401L8.61957 9.03862C9.2838 8.36839 9.83778 7.80942 10.3341 7.41087C10.8546 6.99283 11.4016 6.67487 12.0681 6.58991C12.2115 6.57164 12.3557 6.5625 12.5 6.5625C12.6443 6.5625 12.7885 6.57164 12.9319 6.58991C13.5984 6.67487 14.1454 6.99283 14.6659 7.41086C15.1622 7.80942 15.7162 8.36839 16.3804 9.03861L18.1659 10.8401C18.5303 11.2078 18.5277 11.8014 18.1599 12.1659C17.7922 12.5303 17.1986 12.5277 16.8341 12.1599L15.0868 10.397C14.3746 9.67835 13.8952 9.19666 13.4919 8.87278C13.4734 8.85793 13.4553 8.84359 13.4375 8.82974V17.5Z" fill="black"/>
</svg>
